<svg width="73" height="73" viewBox="0 0 73 73" fill="none" xmlns="http://www.w3.org/2000/svg">
<path id="Vector" d="M50.4995 16.5003C50.4995 17.881 51.6188 19.0003 52.9995 19.0003C54.3802 19.0003 55.4995 17.881 55.4995 16.5003H50.4995ZM17.1662 16.5003C17.1662 17.881 18.2855 19.0003 19.6662 19.0003C21.0469 19.0003 22.1662 17.881 22.1662 16.5003H17.1662ZM38.8328 29.8337V27.3337H33.8328V29.8337H38.8328ZM33.8328 56.5003V59.0003H38.8328V56.5003H33.8328ZM49.6662 45.667H52.1662V40.667H49.6662V45.667ZM22.9995 40.667H20.4995V45.667H22.9995V40.667ZM67.1662 23.167V63.167H72.1662V23.167H67.1662ZM62.9995 67.3337H9.66618V72.3337H62.9995V67.3337ZM5.49951 63.167V23.167H0.499512V63.167H5.49951ZM9.66618 19.0003H62.9995V14.0003H9.66618V19.0003ZM9.66618 67.3337C7.36498 67.3337 5.49951 65.4683 5.49951 63.167H0.499512C0.499512 68.2297 4.60358 72.3337 9.66618 72.3337V67.3337ZM67.1662 63.167C67.1662 65.4683 65.3008 67.3337 62.9995 67.3337V72.3337C68.0622 72.3337 72.1662 68.2297 72.1662 63.167H67.1662ZM72.1662 23.167C72.1662 18.1044 68.0622 14.0003 62.9995 14.0003V19.0003C65.3008 19.0003 67.1662 20.8658 67.1662 23.167H72.1662ZM5.49951 23.167C5.49951 20.8658 7.36498 19.0003 9.66618 19.0003V14.0003C4.60358 14.0003 0.499512 18.1044 0.499512 23.167H5.49951ZM50.4995 9.83366V16.5003H55.4995V9.83366H50.4995ZM22.1662 16.5003V9.83366H17.1662V16.5003H22.1662ZM26.3328 5.66699H46.3328V0.666992H26.3328V5.66699ZM55.4995 9.83366C55.4995 4.77106 51.3955 0.666992 46.3328 0.666992V5.66699C48.6342 5.66699 50.4995 7.53246 50.4995 9.83366H55.4995ZM22.1662 9.83366C22.1662 7.53246 24.0316 5.66699 26.3328 5.66699V0.666992C21.2702 0.666992 17.1662 4.77106 17.1662 9.83366H22.1662ZM33.8328 29.8337V43.167H38.8328V29.8337H33.8328ZM33.8328 43.167V56.5003H38.8328V43.167H33.8328ZM49.6662 40.667H36.3328V45.667H49.6662V40.667ZM36.3328 40.667H22.9995V45.667H36.3328V40.667Z" fill="white"/>
</svg>
