<svg width="86" height="85" viewBox="0 0 86 85" fill="none" xmlns="http://www.w3.org/2000/svg">
<g id="Group">
<path id="Vector" d="M66.6665 82.5L81.9625 63.38C82.4127 62.8179 82.6659 62.0554 82.6665 61.26V35C82.6665 33.0109 82.0344 31.1032 80.9091 29.6967C79.7839 28.2902 78.2578 27.5 76.6665 27.5C75.0752 27.5 73.5491 28.2902 72.4239 29.6967C71.2986 31.1032 70.6665 33.0109 70.6665 35V57.5" stroke="white" stroke-width="5" stroke-linecap="round" stroke-linejoin="round"/>
<path id="Vector_2" d="M66.6665 62.5L70.0985 58.21C70.2795 57.9856 70.423 57.7184 70.5205 57.4239C70.618 57.1295 70.6677 56.8137 70.6665 56.495C70.6637 56.046 70.5622 55.6066 70.3732 55.2248C70.1841 54.8429 69.9148 54.5334 69.5945 54.33L67.8225 53.225C66.3213 52.2867 64.622 51.9624 62.9651 52.298C61.3083 52.6336 59.7779 53.6121 58.5905 55.095L55.0105 59.57C53.5101 61.4449 52.667 63.988 52.6665 66.64V82.5M18.6665 82.5L3.3705 63.38C2.92029 62.8179 2.66706 62.0554 2.6665 61.26V35C2.6665 33.0109 3.29865 31.1032 4.42386 29.6967C5.54908 28.2902 7.0752 27.5 8.6665 27.5C10.2578 27.5 11.7839 28.2902 12.9091 29.6967C14.0344 31.1032 14.6665 33.0109 14.6665 35V57.5" stroke="white" stroke-width="5" stroke-linecap="round" stroke-linejoin="round"/>
<path id="Vector_3" d="M18.6665 62.5L15.2345 58.21C14.8761 57.7506 14.6728 57.1366 14.6665 56.495C14.6665 55.58 15.0825 54.745 15.7385 54.33L17.5105 53.225C19.0117 52.2867 20.7111 51.9624 22.3679 52.298C24.0247 52.6336 25.5551 53.6121 26.7425 55.095L30.3225 59.57C31.8229 61.4449 32.6661 63.988 32.6665 66.64V82.5M49.3345 42.5H35.9985V30.835H26.6665V14.165H35.9985V2.5H49.3345V14.165H58.6665V30.835H49.3345V42.5Z" stroke="white" stroke-width="5" stroke-linecap="round" stroke-linejoin="round"/>
</g>
</svg>
