<svg width="602" height="265" viewBox="0 0 602 265" fill="none" xmlns="http://www.w3.org/2000/svg">
<path d="M495.27 93.9072C495.27 93.9072 524.745 96.8157 539.675 115.023C539.675 115.023 555.467 93.9328 583.81 94.3684C590.737 86.0427 595.147 75.9278 596.528 65.2014C597.909 54.475 596.203 43.5786 591.609 33.7806C587.016 23.9827 579.723 15.6865 570.581 9.85797C561.439 4.02941 550.823 0.908293 539.969 0.858038C529.115 0.807784 518.471 3.83045 509.275 9.5741C500.078 15.3178 492.709 23.5461 488.024 33.301C483.339 43.056 481.532 53.9362 482.812 64.6749C484.093 75.4136 488.409 85.5689 495.257 93.9584L495.27 93.9072Z" fill="#366B9F"/>
<path opacity="0.5" d="M495.27 93.9072C495.27 93.9072 524.745 96.8157 539.675 115.023C539.675 115.023 555.467 93.9328 583.81 94.3684C590.737 86.0427 595.147 75.9278 596.528 65.2014C597.909 54.475 596.203 43.5786 591.609 33.7806C587.016 23.9827 579.723 15.6865 570.581 9.85797C561.439 4.02941 550.823 0.908293 539.969 0.858038C529.115 0.807784 518.471 3.83045 509.275 9.5741C500.078 15.3178 492.709 23.5461 488.024 33.301C483.339 43.056 481.532 53.9362 482.812 64.6749C484.093 75.4136 488.409 85.5689 495.257 93.9584L495.27 93.9072Z" fill="white"/>
<path d="M538.686 4.88184L537.695 195.208H542.672L538.686 4.88184Z" fill="#B8B8B8"/>
<path d="M540.189 109.476C540.189 109.476 550.13 91.6273 568.044 86.1689C568.044 86.1689 549.14 90.6407 539.752 106.004L540.189 109.476Z" fill="#B8B8B8"/>
<path d="M540.189 58.9144C540.189 58.9144 550.13 41.0658 568.044 35.6074C568.044 35.6074 549.14 40.0664 539.752 55.4421L540.189 58.9144Z" fill="#B8B8B8"/>
<path d="M540.189 84.1693C540.189 84.1693 550.13 66.3207 568.044 60.8623C568.044 60.8623 549.14 65.3341 539.752 80.697L540.189 84.1693Z" fill="#B8B8B8"/>
<path d="M538.71 71.7923C538.71 71.7923 529.104 53.9564 511.82 48.498C511.82 48.498 530.068 52.957 539.186 68.3327L538.71 71.7923Z" fill="#B8B8B8"/>
<path d="M538.71 96.5853C538.71 96.5853 529.104 78.7366 511.82 73.291C511.82 73.291 530.068 77.75 539.186 93.1129L538.71 96.5853Z" fill="#B8B8B8"/>
<path d="M12.8581 93.9072C12.8581 93.9072 42.3329 96.8157 57.2632 115.023C57.2632 115.023 73.0551 93.9328 101.398 94.3684C108.325 86.0427 112.735 75.9278 114.116 65.2014C115.497 54.475 113.791 43.5786 109.197 33.7806C104.604 23.9827 97.311 15.6865 88.1687 9.85797C79.0264 4.02941 68.4105 0.908293 57.5569 0.858038C46.7034 0.807784 36.0588 3.83045 26.8625 9.5741C17.6662 15.3178 10.2966 23.5461 5.61177 33.301C0.926934 43.056 -0.880397 53.9362 0.400208 64.6749C1.68081 75.4136 5.99666 85.5689 12.8453 93.9584L12.8581 93.9072Z" fill="#366B9F"/>
<path opacity="0.5" d="M12.8581 93.9072C12.8581 93.9072 42.3329 96.8157 57.2632 115.023C57.2632 115.023 73.0551 93.9328 101.398 94.3684C108.325 86.0427 112.735 75.9278 114.116 65.2014C115.497 54.475 113.791 43.5786 109.197 33.7806C104.604 23.9827 97.311 15.6865 88.1687 9.85797C79.0264 4.02941 68.4105 0.908293 57.5569 0.858038C46.7034 0.807784 36.0588 3.83045 26.8625 9.5741C17.6662 15.3178 10.2966 23.5461 5.61177 33.301C0.926934 43.056 -0.880397 53.9362 0.400208 64.6749C1.68081 75.4136 5.99666 85.5689 12.8453 93.9584L12.8581 93.9072Z" fill="white"/>
<path d="M56.2999 4.88184L55.2969 195.208H60.2736L56.2999 4.88184Z" fill="#B8B8B8"/>
<path d="M57.7908 109.476C57.7908 109.476 67.7314 91.6273 85.6452 86.1689C85.6452 86.1689 66.7412 90.6407 57.3535 106.004L57.7908 109.476Z" fill="#B8B8B8"/>
<path d="M57.7908 58.9144C57.7908 58.9144 67.7314 41.0658 85.6452 35.6074C85.6452 35.6074 66.7412 40.0664 57.3535 55.4421L57.7908 58.9144Z" fill="#B8B8B8"/>
<path d="M57.7908 84.1693C57.7908 84.1693 67.7314 66.3207 85.6452 60.8623C85.6452 60.8623 66.7412 65.3341 57.3535 80.697L57.7908 84.1693Z" fill="#B8B8B8"/>
<path d="M56.3118 71.7923C56.3118 71.7923 46.7055 53.9564 29.4219 48.498C29.4219 48.498 47.67 52.957 56.7876 68.3327L56.3118 71.7923Z" fill="#B8B8B8"/>
<path d="M56.3118 96.5853C56.3118 96.5853 46.7055 78.7366 29.4219 73.291C29.4219 73.291 47.67 77.75 56.7876 93.1129L56.3118 96.5853Z" fill="#B8B8B8"/>
<path d="M375.505 112.357C375.505 112.357 399.631 114.728 411.847 129.629C411.847 129.629 424.772 112.37 447.971 112.716C453.637 105.901 457.244 97.6221 458.371 88.8436C459.499 80.0651 458.1 71.1482 454.339 63.1308C450.578 55.1135 444.608 48.3256 437.125 43.5574C429.642 38.7893 420.954 36.237 412.072 36.1977C403.189 36.1585 394.479 38.6339 386.954 43.3357C379.428 48.0375 373.399 54.7724 369.566 62.7562C365.733 70.74 364.256 79.6442 365.305 88.4323C366.354 97.2204 369.887 105.531 375.493 112.396L375.505 112.357Z" fill="#366B9F"/>
<path opacity="0.5" d="M375.505 112.357C375.505 112.357 399.631 114.728 411.847 129.629C411.847 129.629 424.772 112.37 447.971 112.716C453.637 105.901 457.244 97.6221 458.371 88.8436C459.499 80.0651 458.1 71.1482 454.339 63.1308C450.578 55.1135 444.608 48.3256 437.125 43.5574C429.642 38.7893 420.954 36.237 412.072 36.1977C403.189 36.1585 394.479 38.6339 386.954 43.3357C379.428 48.0375 373.399 54.7724 369.566 62.7562C365.733 70.74 364.256 79.6442 365.305 88.4323C366.354 97.2204 369.887 105.531 375.493 112.396L375.505 112.357Z" fill="white"/>
<path d="M411.05 39.4248L410.24 195.207H414.317L411.05 39.4248Z" fill="#B8B8B8"/>
<path d="M412.273 125.043C412.273 125.043 420.426 110.436 435.074 105.964C435.074 105.964 419.642 109.616 411.926 122.198L412.273 125.043Z" fill="#B8B8B8"/>
<path d="M412.273 83.6567C412.273 83.6567 420.426 69.0498 435.074 64.5908C435.074 64.5908 419.642 68.2426 411.926 80.8122L412.273 83.6567Z" fill="#B8B8B8"/>
<path d="M412.273 104.35C412.273 104.35 420.426 89.7433 435.074 85.2715C435.074 85.2715 419.642 88.9232 411.926 101.506L412.273 104.35Z" fill="#B8B8B8"/>
<path d="M411.064 94.2017C411.064 94.2017 403.206 79.5947 389.061 75.1357C389.061 75.1357 403.991 78.7875 411.462 91.3571L411.064 94.2017Z" fill="#B8B8B8"/>
<path d="M411.064 114.485C411.064 114.485 403.206 99.8779 389.061 95.4189C389.061 95.4189 403.991 99.0707 411.462 111.653L411.064 114.485Z" fill="#B8B8B8"/>
<path d="M142.087 112.357C142.087 112.357 166.213 114.728 178.429 129.629C178.429 129.629 191.289 112.37 214.553 112.716C220.219 105.901 223.826 97.6221 224.953 88.8436C226.081 80.0651 224.682 71.1482 220.921 63.1308C217.16 55.1135 211.19 48.3256 203.707 43.5574C196.224 38.7893 187.536 36.237 178.654 36.1977C169.771 36.1585 161.061 38.6339 153.536 43.3357C146.01 48.0375 139.981 54.7724 136.148 62.7562C132.315 70.74 130.838 79.6442 131.887 88.4323C132.936 97.2204 136.469 105.531 142.075 112.396L142.087 112.357Z" fill="#366B9F"/>
<path opacity="0.5" d="M142.087 112.357C142.087 112.357 166.213 114.728 178.429 129.629C178.429 129.629 191.289 112.37 214.553 112.716C220.219 105.901 223.826 97.6221 224.953 88.8436C226.081 80.0651 224.682 71.1482 220.921 63.1308C217.16 55.1135 211.19 48.3256 203.707 43.5574C196.224 38.7893 187.536 36.237 178.654 36.1977C169.771 36.1585 161.061 38.6339 153.536 43.3357C146.01 48.0375 139.981 54.7724 136.148 62.7562C132.315 70.74 130.838 79.6442 131.887 88.4323C132.936 97.2204 136.469 105.531 142.075 112.396L142.087 112.357Z" fill="white"/>
<path d="M177.63 39.4248L176.82 195.207H180.897L177.63 39.4248Z" fill="#B8B8B8"/>
<path d="M178.918 125.043C178.918 125.043 187.071 110.436 201.718 105.964C201.718 105.964 186.286 109.616 178.57 122.198L178.918 125.043Z" fill="#B8B8B8"/>
<path d="M178.918 83.6567C178.918 83.6567 187.071 69.0498 201.718 64.5908C201.718 64.5908 186.286 68.2426 178.57 80.8122L178.918 83.6567Z" fill="#B8B8B8"/>
<path d="M178.918 104.35C178.918 104.35 187.071 89.7433 201.718 85.2715C201.718 85.2715 186.286 88.9232 178.57 101.506L178.918 104.35Z" fill="#B8B8B8"/>
<path d="M177.631 94.203C177.631 94.203 169.786 79.5961 155.641 75.2012C155.641 75.2012 170.571 78.8529 178.043 91.4226L177.631 94.203Z" fill="#B8B8B8"/>
<path d="M177.632 114.485C177.632 114.485 169.775 99.8779 155.629 95.4189C155.629 95.4189 170.559 99.0707 178.031 111.653L177.632 114.485Z" fill="#B8B8B8"/>
<path d="M21.7305 195.888H576.685" stroke="#263238" stroke-width="1.04742" stroke-miterlimit="10"/>
<path opacity="0.3" d="M173.246 257.726C173.246 261.57 149.545 264.632 120.289 264.632C91.0327 264.632 67.332 261.544 67.332 257.726C67.332 253.907 91.0456 250.819 120.289 250.819C149.532 250.819 173.246 253.92 173.246 257.726Z" fill="black"/>
<path opacity="0.3" d="M284.111 257.726C284.111 261.57 260.397 264.632 231.154 264.632C201.911 264.632 178.197 261.544 178.197 257.726C178.197 253.907 201.911 250.819 231.154 250.819C260.397 250.819 284.111 253.92 284.111 257.726Z" fill="black"/>
<path opacity="0.3" d="M430.971 257.726C430.971 261.57 407.27 264.632 378.027 264.632C348.784 264.632 325.07 261.544 325.07 257.726C325.07 253.907 348.771 250.819 378.027 250.819C407.283 250.819 430.971 253.92 430.971 257.726Z" fill="black"/>
<path opacity="0.3" d="M553.653 257.726C553.653 261.57 529.939 264.632 500.696 264.632C471.453 264.632 447.688 261.544 447.688 257.726C447.688 253.907 471.401 250.819 500.644 250.819C529.888 250.819 553.653 253.92 553.653 257.726Z" fill="black"/>
<path d="M383.749 55.6885C383.749 55.6885 381.576 64.6576 381.576 66.1696C381.574 67.1048 381.471 68.0371 381.267 68.95C381.267 68.95 376.625 74.4981 377.242 76.0357C377.992 77.2312 379.067 78.1907 380.341 78.8033C380.341 78.8033 382.81 87.7725 385.292 88.3619C387.841 88.8364 390.419 89.1445 393.008 89.2844L393.934 96.6776L406.305 94.8325L403.219 83.7364L404.505 74.1778C404.505 74.1778 406.665 70.1801 404.505 63.7095C402.345 57.2389 397.702 56.9313 394.603 56.9313C390.966 56.7018 387.343 56.287 383.749 55.6885Z" fill="white" stroke="#263238" stroke-width="1.04742" stroke-linecap="round" stroke-linejoin="round"/>
<path d="M389.319 51.0757C389.319 51.0757 378.491 50.7554 378.799 53.5358C379.108 56.3162 390.245 59.9424 390.245 59.9424C390.245 59.9424 386.528 62.4025 388.38 64.8754C390.232 67.3483 394.566 69.5009 394.566 69.5009C394.566 69.5009 393.28 74.7415 395.196 75.049C397.112 75.3565 398.282 72.5761 398.591 71.6535C398.899 70.731 402.307 71.0385 403.233 73.4986C403.757 74.777 404.069 76.1313 404.159 77.5091C404.159 77.5091 407.876 66.413 408.493 61.4799C409.11 56.5469 395.196 51.0757 389.319 51.0757Z" fill="#263238" stroke="#263238" stroke-width="1.04742" stroke-linecap="round" stroke-linejoin="round"/>
<path d="M396.172 75.2021C396.172 75.2021 399.914 67.0017 402.152 71.0378C404.389 75.074 403.438 79.2767 401.239 79.7251C399.04 80.1736 397.201 80.6092 397.201 80.6092" fill="white"/>
<path d="M396.172 75.2021C396.172 75.2021 399.914 67.0017 402.152 71.0378C404.389 75.074 403.438 79.2767 401.239 79.7251C399.04 80.1736 397.201 80.6092 397.201 80.6092" stroke="#263238" stroke-width="1.04742" stroke-linecap="round" stroke-linejoin="round"/>
<path d="M380.958 160.781C380.354 161.486 370.439 182.666 369.204 189.752C367.97 196.837 359.932 239.069 359.611 240.914C359.289 242.76 342.302 246.463 341.054 246.77C339.807 247.078 342.34 250.473 346.005 251.396C349.67 252.318 360.241 256.636 362.723 254.163C365.205 251.69 368.6 237.827 369.526 236.289C370.452 234.751 387.864 193.878 387.864 193.878C387.864 193.878 396.789 174.261 398.641 172.403C400.492 170.545 396.442 162.332 394.886 159.859C393.329 157.386 385.292 155.848 380.958 160.781Z" fill="#263238" stroke="#263238" stroke-width="1.04742" stroke-linecap="round" stroke-linejoin="round"/>
<path d="M379.107 161.051C379.107 161.051 383.441 181.706 385.602 189.099C387.624 195.309 390.666 201.141 394.603 206.359C397.085 209.754 409.148 239.673 409.148 239.673L411 244.298C411 244.298 410.383 246.143 406.988 248.603C403.593 251.064 393.986 255.074 396.468 256.009C398.95 256.945 408.839 256.932 413.482 256.624C417.479 256.342 421.226 254.583 423.988 251.691C425.853 249.526 420.902 243.363 420.902 242.133C420.902 240.903 410.074 203.309 409.457 201.451C408.839 199.593 405.74 186.357 405.74 186.357V171.302C405.74 171.302 407.296 168.534 407.296 162.333C407.296 156.131 402.654 154.927 402.654 154.927L377.281 157.4L379.107 161.051Z" fill="#263238" stroke="#263238" stroke-width="1.04742" stroke-linecap="round" stroke-linejoin="round"/>
<path d="M376.959 159.244C376.959 159.244 377.589 164.485 379.441 164.792C381.293 165.1 400.467 170.34 408.826 164.177C408.826 164.177 410.369 159.552 409.443 158.322C408.517 157.091 406.344 157.707 395.22 157.707C384.096 157.707 376.959 157.706 376.959 159.244Z" fill="#366B9F" stroke="#263238" stroke-width="1.04742" stroke-linecap="round" stroke-linejoin="round"/>
<path d="M405.392 90.208C405.392 90.208 393.947 91.7456 388.996 96.6146C384.044 101.484 379.724 110.491 377.563 118.807C375.403 127.123 373.847 157.643 376.933 159.181C380.019 160.719 406.009 162.269 410.369 160.462C414.728 158.656 410.06 144.126 410.06 138.577C410.06 133.029 415.011 114.233 414.085 103.764C413.159 93.2959 405.392 90.208 405.392 90.208Z" fill="#366B9F" stroke="#263238" stroke-width="1.04742" stroke-linecap="round" stroke-linejoin="round"/>
<path d="M364.098 122.239C363.957 109.554 358.762 98.7267 351.856 94.0499V91.4873L332.823 91.6795C322.111 91.7948 313.534 105.774 313.752 122.815C313.971 139.857 322.754 153.657 333.479 153.567L352.512 153.375V150.812C359.199 145.853 364.163 134.924 364.098 122.239Z" fill="#263238" stroke="#263238" stroke-width="1.04742" stroke-linecap="round" stroke-linejoin="round"/>
<path d="M372.638 122.15C372.496 108.825 367.339 97.4465 360.086 92.5007V89.7715L351.933 89.8612C340.668 89.9765 331.705 104.622 331.898 122.573C332.09 140.524 341.362 154.977 352.628 154.862L360.781 154.772V152.056C367.867 146.956 372.779 135.425 372.638 122.15Z" fill="white" stroke="#263238" stroke-width="1.04742" stroke-linecap="round" stroke-linejoin="round"/>
<path d="M380.817 122.06C381.009 139.999 372.033 154.657 360.781 154.772C349.529 154.888 340.205 140.434 340.051 122.496C339.896 104.558 348.834 89.8995 360.086 89.7714C371.339 89.6432 380.598 104.109 380.817 122.06Z" fill="#737373" stroke="#263238" stroke-width="1.04742" stroke-linecap="round" stroke-linejoin="round"/>
<path d="M376.134 121.509C376.224 130.004 371.968 136.949 366.631 137.013C361.294 137.077 356.896 130.209 356.806 121.637C356.716 113.065 360.973 106.262 366.31 106.134C371.646 106.005 376.044 113.001 376.134 121.509Z" fill="#263238" stroke="#263238" stroke-width="1.04742" stroke-linecap="round" stroke-linejoin="round"/>
<path d="M527.677 185.396C528.738 177.498 529.19 169.53 529.027 161.563C524.847 163.485 500.465 164.19 498.227 164.241C495.99 164.293 471.608 163.485 467.428 161.563C467.244 169.529 467.674 177.496 468.714 185.396C470.399 195.787 485.213 237.391 485.548 239.403C485.981 241.343 486.544 243.252 487.232 245.118C487.232 245.118 478.809 251.153 475.105 253.498C471.402 255.842 474.102 256.855 477.806 256.855C481.51 256.855 489.251 255.842 491.605 255.842C493.688 255.842 497.314 254.036 498.163 253.6C499.012 254.036 502.638 255.842 504.709 255.842C507.075 255.842 514.817 256.855 518.52 256.855C522.224 256.855 524.95 255.842 521.221 253.498C517.492 251.153 509.094 245.118 509.094 245.118C509.782 243.252 510.345 241.343 510.779 239.403C511.177 237.353 525.992 195.749 527.677 185.396Z" fill="#263238" stroke="#263238" stroke-width="1.04742" stroke-linecap="round" stroke-linejoin="round"/>
<path d="M493.136 96.3311C493.136 96.3311 480.109 100.572 473.383 104.826C466.657 109.08 459.906 132.118 459.906 133.015C459.519 134.62 458.994 136.189 458.337 137.705C458.337 137.705 451.599 136.141 450.261 141.728C448.924 147.314 456.987 154.477 461.256 154.708C465.526 154.938 466.863 153.593 466.863 153.593C466.863 153.593 464.175 158.962 465.294 161.191C466.413 163.42 475.852 171.711 494.486 171.441C513.12 171.172 526.636 168.084 528.603 165.407C530.571 162.729 530.854 157.129 530.854 157.129C530.854 157.129 537.811 155.335 540.28 150.864C542.749 146.392 542.299 141.689 540.949 137C539.599 132.31 532.641 118.69 527.935 111.079C523.228 103.468 513.339 99.2268 508.645 97.8814C503.951 96.5361 496.274 96.3311 493.136 96.3311Z" fill="#366B9F" stroke="#263238" stroke-width="1.04742" stroke-linecap="round" stroke-linejoin="round"/>
<path d="M497.083 115.166C498.948 114.551 504.799 109.375 507.049 104.198C507.94 102.217 508.567 100.127 508.914 97.9839L508.618 97.8943C503.912 96.5489 496.273 96.3311 493.186 96.3311C493.186 96.3311 490.46 97.2152 486.859 98.5862C486.882 101.356 487.404 104.099 488.403 106.684C490.434 111.861 495.27 115.794 497.083 115.166Z" fill="white" stroke="#263238" stroke-width="1.04742" stroke-linecap="round" stroke-linejoin="round"/>
<path d="M518.494 125.622C518.494 125.622 523.882 154.259 529.991 157.206" stroke="#263238" stroke-width="1.04742" stroke-linecap="round" stroke-linejoin="round"/>
<path d="M466.863 153.594C466.863 153.594 473.602 128.314 474.052 125.854" stroke="#263238" stroke-width="1.04742" stroke-linecap="round" stroke-linejoin="round"/>
<path d="M527.2 138.563C527.2 138.563 523.471 139.396 523.471 142.087" stroke="#263238" stroke-width="1.04742" stroke-linecap="round" stroke-linejoin="round"/>
<path d="M463.84 138.974C463.84 138.974 467.994 141.664 467.582 145.803" stroke="#263238" stroke-width="1.04742" stroke-linecap="round" stroke-linejoin="round"/>
<path d="M491.669 255.868C493.752 255.868 497.378 254.061 498.227 253.626C499.076 254.061 502.702 255.868 504.773 255.868C507.139 255.868 514.881 256.88 518.584 256.88C522.288 256.88 525.014 255.868 521.285 253.523C518.057 251.486 511.293 246.668 509.57 245.438C505.596 249.052 497.739 248.155 497.739 248.155C496.147 247.916 494.571 247.582 493.019 247.155C490.666 246.476 487.296 245.144 487.296 245.144C487.296 245.144 478.873 251.179 475.17 253.523C471.466 255.868 474.166 256.88 477.87 256.88C481.574 256.88 489.315 255.868 491.669 255.868Z" fill="#366B9F" stroke="#263238" stroke-width="1.04742" stroke-linecap="round" stroke-linejoin="round"/>
<path d="M497.738 245.194V186.689" stroke="white" stroke-width="1.04742" stroke-linecap="round" stroke-linejoin="round"/>
<path d="M498.227 253.56L497.738 248.089V245.193" stroke="#263238" stroke-width="1.04742" stroke-linecap="round" stroke-linejoin="round"/>
<path d="M493.02 184.678H502.78" stroke="white" stroke-width="1.04742" stroke-linecap="round" stroke-linejoin="round"/>
<path d="M480.263 62.7609C480.263 62.7609 473.267 66.938 474.309 70.6025C475.351 74.2671 478.514 74.9718 477.82 77.0091C477.125 79.0464 474.695 80.3277 477.46 81.609C479.034 82.3116 480.682 82.8401 482.372 83.185C482.372 83.185 484.944 92.0773 489.368 93.6405C493.792 95.2037 501.456 94.1658 506.883 93.4739C508.716 93.2952 510.451 92.5643 511.857 91.3786C513.263 90.1929 514.273 88.6087 514.753 86.8367C515.28 84.9276 512.477 87.1955 511.075 85.0942C509.673 82.9928 511.782 77.5985 513.351 72.8833C514.92 68.168 510.201 59.2757 504.079 56.3159C497.958 53.3561 486.269 54.9065 480.263 62.7609Z" fill="#263238" stroke="#263238" stroke-width="1.04742" stroke-linecap="round" stroke-linejoin="round"/>
<path d="M492.016 93.1418C491.126 96.0664 490.523 99.0702 490.215 102.111C489.984 105.955 493.134 110.17 496.504 109.94C499.873 109.709 502.779 103.008 503.229 99.6893C503.679 96.3707 502.111 87.3887 502.111 87.3887C502.111 87.3887 496.967 87.6193 494.922 89.4003C493.721 90.4501 492.734 91.7204 492.016 93.1418Z" fill="white" stroke="#263238" stroke-width="1.04742" stroke-linecap="round" stroke-linejoin="round"/>
<path d="M487.45 67.6426C487.45 67.6426 487.617 72.8703 492.877 77.8931C496.039 80.9394 499.788 83.315 503.898 84.8762C503.806 86.0212 503.51 87.1407 503.023 88.182C502.795 88.6173 502.439 88.973 502.002 89.2019C501.566 89.4308 501.07 89.5219 500.58 89.4633H498.818C498.818 89.4633 496.246 95.4726 493.134 96.3439C490.022 97.2152 482.371 96.613 481.316 88.938C480.262 81.2629 480.094 74.9845 480.969 73.4085C481.843 71.8325 487.45 67.6426 487.45 67.6426Z" fill="white" stroke="#263238" stroke-width="1.04742" stroke-linecap="round" stroke-linejoin="round"/>
<path d="M542.478 135.168C543.276 133.566 543.761 131.826 543.906 130.043C543.906 127.711 539.559 124.367 538.762 123.534C537.965 122.701 537.167 122.791 537 123.957C536.998 124.611 537.13 125.259 537.389 125.861C537.648 126.463 538.027 127.005 538.505 127.455C539.156 127.967 539.629 128.671 539.855 129.466C539.932 130.043 538.415 132.875 539.173 134.707C539.932 136.539 542.067 137.09 542.478 135.168Z" fill="white" stroke="#263238" stroke-width="1.04742" stroke-linecap="round" stroke-linejoin="round"/>
<path d="M368.316 122.085C368.316 122.085 387.246 128.12 398.627 142.214C410.008 156.309 417.48 154.284 431.625 149.595C445.771 144.905 451.16 128.12 470.694 142.214C490.228 156.309 494.266 161.665 510.431 153.618C526.596 145.571 535.34 126.108 550.168 132.81C564.995 139.511 558.244 173.811 559.594 190.469C560.944 207.126 558.912 248.858 562.282 254.227C565.651 259.595 600 255.508 600 255.508" stroke="#263238" stroke-width="3.14226" stroke-linecap="round" stroke-linejoin="round"/>
<path d="M403.771 99.6895C403.771 99.6895 400.003 93.5649 394.447 95.1665C388.57 96.8578 385.535 105.225 384.159 110.44C382.783 115.655 381.858 121.292 379.337 126.149C379.337 126.149 368.2 125.956 361.989 124.163C357.25 122.69 352.589 120.98 348.023 119.037C348.023 119.037 345.824 115.975 344.268 115.373C342.712 114.771 338.674 113.592 338.378 114.514C338.083 115.437 343.059 118.474 343.059 118.474C343.059 118.474 333.8 119.755 332.874 120.741C331.948 121.728 339.42 124.675 339.42 124.675C339.42 124.675 342.211 125.572 349.001 123.958C349.001 123.958 373.91 139.718 378.874 141.524C383.838 143.331 386.59 143.908 389.972 137.399C393.354 130.889 404.581 114.745 406.368 108.249" fill="#366B9F"/>
<path d="M403.771 99.6895C403.771 99.6895 400.003 93.5649 394.447 95.1665C388.57 96.8578 385.535 105.225 384.159 110.44C382.783 115.655 381.858 121.292 379.337 126.149C379.337 126.149 368.2 125.956 361.989 124.163C357.25 122.69 352.589 120.98 348.023 119.037C348.023 119.037 345.824 115.975 344.268 115.373C342.712 114.771 338.674 113.592 338.378 114.514C338.083 115.437 343.059 118.474 343.059 118.474C343.059 118.474 333.8 119.755 332.874 120.741C331.948 121.728 339.42 124.675 339.42 124.675C339.42 124.675 342.211 125.572 349.001 123.958C349.001 123.958 373.91 139.718 378.874 141.524C383.838 143.331 386.59 143.908 389.972 137.399C393.354 130.889 404.581 114.745 406.368 108.249" stroke="#263238" stroke-width="1.04742" stroke-linecap="round" stroke-linejoin="round"/>
<path d="M354.494 121.651C350.855 120.293 348.064 119.088 348.064 119.088C348.064 119.088 345.865 116.026 344.309 115.424C342.753 114.821 338.715 113.643 338.419 114.565C338.124 115.488 343.1 118.524 343.1 118.524C343.1 118.524 333.841 119.806 332.915 120.792C331.989 121.779 339.461 124.726 339.461 124.726C339.461 124.726 342.252 125.623 349.042 124.008L352.527 126.199L354.494 121.651Z" fill="white" stroke="#263238" stroke-width="1.04742" stroke-linecap="round" stroke-linejoin="round"/>
<path d="M450.506 137.526C449.708 135.923 449.223 134.183 449.078 132.4C449.078 130.068 453.438 126.737 454.222 125.904C455.007 125.071 455.804 125.161 455.971 126.327C455.973 126.981 455.841 127.629 455.582 128.231C455.323 128.833 454.944 129.375 454.466 129.825C453.815 130.337 453.342 131.041 453.116 131.837C453.039 132.4 454.556 135.245 453.798 137.077C453.039 138.909 450.917 139.435 450.506 137.526Z" fill="white" stroke="#263238" stroke-width="1.04742" stroke-linecap="round" stroke-linejoin="round"/>
<path d="M453.501 130.491C453.501 130.491 449.913 137.09 451.996 139.46C454.079 141.831 456.098 134.13 456.484 132.003C456.87 129.876 454.825 127.736 453.501 130.491Z" fill="white" stroke="#263238" stroke-width="1.04742" stroke-linecap="round" stroke-linejoin="round"/>
<path d="M456.458 132.862C456.458 132.862 452.87 139.461 454.953 141.831C457.036 144.202 459.055 136.501 459.441 134.374C459.827 132.247 457.782 130.03 456.458 132.862Z" fill="white" stroke="#263238" stroke-width="1.04742" stroke-linecap="round" stroke-linejoin="round"/>
<path d="M459.712 133.414C459.712 133.414 456.124 140.012 458.207 142.383C460.29 144.753 462.309 137.053 462.695 134.926C463.081 132.799 461.036 130.646 459.712 133.414Z" fill="white" stroke="#263238" stroke-width="1.04742" stroke-linecap="round" stroke-linejoin="round"/>
<path d="M463.879 133.464C463.879 133.464 460.536 138.59 462.362 140.524C464.188 142.459 466.156 136.373 466.541 134.617C466.927 132.862 465.114 131.158 463.879 133.464Z" fill="white" stroke="#263238" stroke-width="1.04742" stroke-linecap="round" stroke-linejoin="round"/>
<path d="M540.086 130.747C540.086 130.747 543.674 137.346 541.59 139.716C539.507 142.087 537.488 134.373 537.102 132.246C536.717 130.119 538.761 127.979 540.086 130.747Z" fill="white" stroke="#263238" stroke-width="1.04742" stroke-linecap="round" stroke-linejoin="round"/>
<path d="M537.129 133.054C537.129 133.054 540.717 139.653 538.633 142.023C536.55 144.393 534.531 136.68 534.145 134.553C533.76 132.426 535.804 130.299 537.129 133.054Z" fill="white" stroke="#263238" stroke-width="1.04742" stroke-linecap="round" stroke-linejoin="round"/>
<path d="M533.849 133.67C533.849 133.67 537.437 140.269 535.354 142.639C533.27 145.01 531.251 137.309 530.878 135.169C530.506 133.029 532.563 130.902 533.849 133.67Z" fill="white" stroke="#263238" stroke-width="1.04742" stroke-linecap="round" stroke-linejoin="round"/>
<path d="M529.707 133.72C529.707 133.72 533.051 138.909 531.225 140.78C529.398 142.651 527.431 136.629 527.058 134.873C526.685 133.118 528.473 131.414 529.707 133.72Z" fill="white" stroke="#263238" stroke-width="1.04742" stroke-linecap="round" stroke-linejoin="round"/>
<path d="M87.2508 206.729V214.007C84.716 216.767 82.8932 220.1 81.9397 223.719C80.3836 229.664 75.5097 255.252 76.7957 255.918C78.0817 256.585 90.1828 259.339 94.0408 258.763C98.4646 258.096 102.233 258.327 100.008 255.893C97.783 253.458 86.0934 246.654 86.0934 246.654C86.0934 246.654 98.9533 228.127 101.808 221.284C104.663 214.442 105.126 203.859 105.126 203.859L87.8681 203.205L87.2508 206.729Z" fill="white" stroke="#263238" stroke-width="1.04742" stroke-linecap="round" stroke-linejoin="round"/>
<path d="M94.0433 258.764C98.4671 258.097 102.235 258.328 100.01 255.894C97.7855 253.459 86.0959 246.655 86.0959 246.655L85.6587 249.295L77.2355 248.27C76.6182 252.549 76.3481 255.689 76.7982 255.958C78.1742 256.573 90.1854 259.34 94.0433 258.764Z" fill="#263238" stroke="#263238" stroke-width="1.04742" stroke-linecap="round" stroke-linejoin="round"/>
<path d="M129.534 210.496L131.527 214.032C130.701 215.62 130.215 217.361 130.099 219.145C129.984 220.93 130.243 222.719 130.858 224.398C132.852 230.574 137.507 253.292 137.507 254.612C137.507 255.931 140.375 256.815 142.651 256.815C144.927 256.815 151.228 257.251 152.116 257.251C153.003 257.251 159.42 258.353 161.632 257.033C163.844 255.714 158.816 253.061 155.498 251.524C152.18 249.986 144.876 246.014 144.876 246.014C144.876 246.014 146.637 227.922 146.637 219.978C146.637 212.034 148.412 209.394 145.981 204.538C143.551 199.682 128.273 206.755 128.273 206.755L129.534 210.496Z" fill="white" stroke="#263238" stroke-width="1.04742" stroke-linecap="round" stroke-linejoin="round"/>
<path d="M155.434 251.523C152.116 249.973 144.811 246.014 144.811 246.014L143.924 249.319L136.812 250.601C137.237 252.805 137.507 254.317 137.507 254.624C137.507 255.905 140.375 256.828 142.651 256.828C144.927 256.828 151.228 257.264 152.116 257.264C153.003 257.264 159.42 258.366 161.632 257.046C163.844 255.726 158.751 253.061 155.434 251.523Z" fill="#263238" stroke="#263238" stroke-width="1.04742" stroke-linecap="round" stroke-linejoin="round"/>
<path d="M117.614 63.6707C115.878 60.7158 113.895 57.9126 111.685 55.291C108.638 51.8699 99.0826 52.0621 94.8903 56.5723C90.698 61.0825 92.0226 69.1291 93.6043 71.4098C95.1861 73.6906 98.3753 84.3511 98.3753 84.3511L99.1341 91.9621L116.894 98.2405L113.267 85.8758C113.267 85.8758 120.147 84.5945 120.713 82.4547C121.279 80.315 119.568 73.1268 119.568 73.1268C119.568 73.1268 121.857 71.602 121.665 70.2695C121.472 68.9369 117.614 63.6707 117.614 63.6707Z" fill="white" stroke="#263238" stroke-width="1.04742" stroke-linecap="round" stroke-linejoin="round"/>
<path d="M97.1799 71.8716C97.1799 71.8716 100.215 74.4343 101.874 71.5001C103.533 68.5659 104.793 65.6957 104.793 63.21C104.793 60.7242 98.5559 58.6613 102.71 56.9956C106.863 55.3299 109.86 59.0329 111.712 55.3171C113.563 51.6013 111.879 51.2041 101.899 51.2041C91.9202 51.2041 86.9306 56.1756 89.0396 62.3899C90.7263 66.9792 92.8133 71.4124 95.2766 75.6387L97.1799 71.8716Z" fill="#263238" stroke="#263238" stroke-width="1.04742" stroke-linecap="round" stroke-linejoin="round"/>
<path d="M118.179 68.0652C118.179 69.0054 117.899 69.9244 117.375 70.7062C116.85 71.4879 116.105 72.0972 115.234 72.457C114.362 72.8168 113.402 72.9109 112.477 72.7275C111.551 72.5441 110.701 72.0913 110.034 71.4265C109.367 70.7617 108.912 69.9147 108.728 68.9926C108.544 68.0704 108.639 67.1146 109 66.246C109.361 65.3774 109.973 64.635 110.757 64.1127C111.542 63.5903 112.464 63.3115 113.408 63.3115C114.673 63.3115 115.887 63.8124 116.781 64.7038C117.676 65.5953 118.179 66.8044 118.179 68.0652Z" stroke="#263238" stroke-width="1.04742" stroke-linecap="round" stroke-linejoin="round"/>
<path d="M117.484 63.8508C118.04 63.6243 118.633 63.5068 119.233 63.5049C120.227 63.5067 121.192 63.8368 121.976 64.4436C122.761 65.0504 123.322 65.8995 123.571 66.8579C123.819 67.8162 123.741 68.8296 123.35 69.7393C122.958 70.649 122.275 71.4036 121.407 71.8847" stroke="#263238" stroke-width="1.04742" stroke-linecap="round" stroke-linejoin="round"/>
<path d="M108.638 68.0654L97.1797 71.8709" stroke="#263238" stroke-width="1.04742" stroke-linecap="round" stroke-linejoin="round"/>
<path d="M100.472 74.3444C100.472 74.3444 98.1833 69.5907 95.8942 70.5005C93.6052 71.4102 94.7497 78.8802 97.0387 79.6362C97.808 79.8088 98.6075 79.7953 99.3704 79.5969C100.133 79.3985 100.837 79.0209 101.424 78.4959C101.424 78.4959 103.34 82.4935 105.629 83.6211" fill="white"/>
<path d="M100.472 74.3444C100.472 74.3444 98.1833 69.5907 95.8942 70.5005C93.6052 71.4102 94.7497 78.8802 97.0387 79.6362C97.808 79.8088 98.6075 79.7953 99.3704 79.5969C100.133 79.3985 100.837 79.0209 101.424 78.4959C101.424 78.4959 103.34 82.4935 105.629 83.6211" stroke="#263238" stroke-width="1.04742" stroke-linecap="round" stroke-linejoin="round"/>
<path d="M85.4508 159.77L84.0234 177.99L79.7539 204.962C79.7539 204.962 89.7332 212.765 99.0437 212.765C108.354 212.765 110.913 211.586 110.913 211.586L116.134 183.91L121.356 213.009C121.356 213.009 131.643 211.356 138.459 209.69C143.198 208.376 147.69 206.299 151.756 203.54L137.983 167.817L135 149.392C135 149.392 119.568 150.814 110.296 151.288C101.024 151.762 88.6915 149.392 88.6915 149.392L85.4508 159.77Z" fill="#366B9F" stroke="#263238" stroke-width="1.04742" stroke-linecap="round" stroke-linejoin="round"/>
<path d="M95.2383 86.9656C95.2383 86.9656 117.1 94.5638 123.851 101.944C127.581 106.044 131.76 134.105 133.265 140.96C134.769 147.815 137.393 161.461 137.393 161.461C137.393 161.461 124.057 167.458 113.744 167.675C103.43 167.893 83.6387 163.178 83.6387 163.178C83.6387 163.178 85.992 132.772 85.992 118.64C85.992 104.507 86.2106 95.2813 88.564 90.7839C88.5768 90.8224 92.4477 86.53 95.2383 86.9656Z" fill="#263238" stroke="#263238" stroke-width="1.04742" stroke-linecap="round" stroke-linejoin="round"/>
<path d="M89.4882 165.381C89.4882 165.381 90.6713 185.254 89.4882 192.596C88.6574 197.333 87.2227 201.944 85.2188 206.319" stroke="#263238" stroke-width="1.04742" stroke-linecap="round" stroke-linejoin="round"/>
<path d="M89.9648 174.85C91.7504 174.239 93.346 173.176 94.5949 171.766C95.8439 170.355 96.7034 168.645 97.0892 166.804" stroke="#263238" stroke-width="1.04742" stroke-linecap="round" stroke-linejoin="round"/>
<path d="M80.9375 201.118C80.9375 201.118 92.82 211.292 111.338 207.525" stroke="#263238" stroke-width="1.04742" stroke-linecap="round" stroke-linejoin="round"/>
<path d="M120.842 207.024C120.842 207.024 140.312 204.897 148.863 199.221" stroke="#263238" stroke-width="1.04742" stroke-linecap="round" stroke-linejoin="round"/>
<path d="M207.928 77.765C207.928 77.765 206.05 79.1489 199.504 83.9153C192.959 88.6818 198.116 95.8828 198.116 95.8828C198.116 95.8828 193.435 96.6131 187.185 103.161C180.935 109.708 189.975 120.945 198.424 122.701C206.873 124.456 216.75 114.039 219.707 104.378C222.665 94.7168 218.756 80.1483 216.788 77.1372C214.821 74.1261 207.928 77.765 207.928 77.765Z" fill="#263238" stroke="#263238" stroke-width="1.04742" stroke-linecap="round" stroke-linejoin="round"/>
<path d="M232.724 76.4836C232.724 76.4836 235.977 71.4737 233.032 64.2086C230.087 56.9436 221.291 53.625 212.727 58.8912C209.872 60.5836 207.658 63.1675 206.428 66.2418C205.198 69.3162 205.021 72.7092 205.924 75.8942C206.76 79.2512 210.978 84.4149 211.865 84.4918C212.752 84.5687 220.455 87.3619 225.715 84.9146C230.975 82.4673 232.724 76.4836 232.724 76.4836Z" fill="#263238" stroke="#263238" stroke-width="1.04742" stroke-linecap="round" stroke-linejoin="round"/>
<path d="M194.875 245.616C194.875 245.616 200.983 255.085 211.593 256.7C222.202 258.314 212.66 248.833 210.873 247.397C209.085 245.962 196.315 242.862 194.875 245.616Z" fill="#737373" stroke="#263238" stroke-width="1.04742" stroke-linecap="round" stroke-linejoin="round"/>
<path d="M251.397 248.052C251.397 248.052 263.061 250.91 262.16 253.421C261.26 255.932 251.757 255.74 246.201 254.305C240.646 252.87 235.425 250.73 236.145 248.411C236.865 246.092 251.397 248.052 251.397 248.052Z" fill="#737373" stroke="#263238" stroke-width="1.04742" stroke-linecap="round" stroke-linejoin="round"/>
<path d="M218.229 95.3193C218.229 95.3193 202.617 97.6001 199.762 103.097C196.908 108.594 200.933 138.538 200.933 138.538C200.933 138.538 194.271 153.183 194.181 162.614C194.091 172.044 198.309 188.637 197.975 192.776C197.641 196.914 193.371 244.028 193.371 245.31C193.371 246.591 202.373 249.461 215.349 250.999C228.324 252.536 253.144 247.936 253.144 247.936C253.144 247.936 252.655 220.132 253.954 203.552C255.253 186.972 253.401 172.07 250.096 165.881C246.791 159.692 231.398 137.41 231.398 137.41C231.398 137.41 238.856 123.931 239.319 118.037C239.782 112.143 237.378 109.068 231.745 102.29C230.071 100.29 228.013 98.6438 225.692 97.4469C223.371 96.25 220.834 95.5267 218.229 95.3193Z" fill="#366B9F" stroke="#263238" stroke-width="1.04742" stroke-linecap="round" stroke-linejoin="round"/>
<path d="M231.437 137.422C231.437 137.422 238.895 123.943 239.358 118.049C239.821 112.155 237.416 109.08 231.784 102.302C231.514 101.968 231.231 101.674 230.948 101.366L230.742 101.558C224.955 110.976 205.82 127.069 200.123 131.759C200.56 135.769 200.933 138.537 200.933 138.537C200.933 138.537 194.272 153.182 194.182 162.613C194.288 166.91 194.718 171.193 195.468 175.426C208.983 167.738 227.064 153.349 236.851 145.328C233.79 140.818 231.437 137.422 231.437 137.422Z" fill="#737373" stroke="#263238" stroke-width="1.04742" stroke-linecap="round" stroke-linejoin="round"/>
<path d="M215.35 84.3259C215.781 87.8424 216.017 91.3799 216.057 94.9223C215.851 97.549 216.7 103.546 221.201 105.429C225.702 107.313 228.531 104.686 228.518 102.046C228.355 99.8664 227.923 97.7147 227.232 95.6399L227.361 88.4005C227.361 88.4005 219.593 83.5571 215.35 84.3259Z" fill="white" stroke="#263238" stroke-width="1.04742" stroke-linecap="round" stroke-linejoin="round"/>
<path d="M211.312 79.6239C211.312 79.6239 208.007 76.7282 207.904 80.9052C207.801 85.0823 211.659 86.4661 212.508 86.748C213.225 86.845 213.951 86.6663 214.54 86.2483C214.54 86.2483 220.533 91.3735 225.342 91.7067C230.152 92.0398 232.107 89.8231 233.238 81.123C234.37 72.4229 225.355 63.5947 225.355 63.5947C225.355 63.5947 217.639 77.766 211.312 79.6239Z" fill="white" stroke="#263238" stroke-width="1.04742" stroke-linecap="round" stroke-linejoin="round"/>
<path d="M137.765 161.282C137.722 159.797 137.966 158.318 138.486 156.925C139.283 155.183 143.63 154.183 144.594 153.85C145.559 153.517 146.047 153.85 145.764 154.76C145.539 155.249 145.217 155.687 144.817 156.048C144.417 156.41 143.947 156.686 143.437 156.861C142.772 157.02 142.173 157.383 141.726 157.899C141.482 158.309 141.636 160.936 140.44 162.05C139.244 163.165 137.367 162.858 137.765 161.282Z" fill="white" stroke="#263238" stroke-width="1.04742" stroke-linecap="round" stroke-linejoin="round"/>
<path d="M236.323 122.753C236.323 122.753 220.892 120.741 214.089 131.479C207.286 142.216 194.567 179.784 170.995 185.832C147.423 191.88 140.685 143.549 126.539 144.894C113.062 146.175 103.648 144.894 95.5594 159.655C91.2385 167.56 69.634 253.882 59.4233 254.766C26.9007 257.598 5.96484 255.753 5.96484 255.753" stroke="#263238" stroke-width="3.14226" stroke-linecap="round" stroke-linejoin="round"/>
<path d="M96.2414 87.5808C96.2414 87.5808 92.6792 86.1585 87.9211 88.9902C83.1629 91.8219 70.3545 122.83 71.3062 126.148C72.2578 129.467 85.7864 135.617 93.3865 137.744C100.987 139.871 114.76 142.485 114.76 142.485C114.76 142.485 119.029 149.109 120.457 149.34C122.533 149.312 124.601 149.076 126.629 148.635C126.629 148.635 129.201 150.762 130.191 148.392C131.182 146.021 129.24 142.959 127.105 140.589C124.97 138.218 115.943 137.039 115.943 137.039L91.4704 120.229L101.758 101.304" fill="#263238"/>
<path d="M96.2414 87.5808C96.2414 87.5808 92.6792 86.1585 87.9211 88.9902C83.1629 91.8219 70.3545 122.83 71.3062 126.148C72.2578 129.467 85.7864 135.617 93.3865 137.744C100.987 139.871 114.76 142.485 114.76 142.485C114.76 142.485 119.029 149.109 120.457 149.34C122.533 149.312 124.601 149.076 126.629 148.635C126.629 148.635 129.201 150.762 130.191 148.392C131.182 146.021 129.24 142.959 127.105 140.589C124.97 138.218 115.943 137.039 115.943 137.039L91.4704 120.229L101.758 101.304" stroke="#263238" stroke-width="1.04742" stroke-linecap="round" stroke-linejoin="round"/>
<path d="M120.455 149.327C122.531 149.299 124.599 149.063 126.628 148.622C126.628 148.622 129.2 150.749 130.19 148.378C131.18 146.008 129.239 142.946 127.104 140.575C124.969 138.205 115.941 137.026 115.941 137.026L91.4691 120.228L95.1213 113.45C85.978 107.774 79.9081 108.197 76.6289 109.337C73.3496 117.178 70.8548 124.61 71.292 126.135C72.2436 129.453 85.7722 135.604 93.3724 137.731C100.973 139.858 114.745 142.472 114.745 142.472C114.745 142.472 119.028 149.096 120.455 149.327Z" fill="white" stroke="#263238" stroke-width="1.04742" stroke-linecap="round" stroke-linejoin="round"/>
<path d="M273.425 123.277C272.383 112.091 266.995 102.904 260.565 99.2524L260.36 96.9717L243.565 98.5221C234.113 99.3933 227.593 112.322 228.994 127.39C230.396 142.458 239.192 153.952 248.644 153.016L265.439 151.466L265.221 149.185C270.879 144.47 274.467 134.463 273.425 123.277Z" fill="#263238" stroke="#263238" stroke-width="1.04742" stroke-linecap="round" stroke-linejoin="round"/>
<path d="M281.026 122.611C279.933 110.861 274.596 101.187 267.793 97.3433L267.562 94.9473L260.373 95.6135C250.445 96.5361 243.591 110.105 245.057 125.942C246.523 141.779 255.782 153.862 265.71 152.939L272.898 152.273L272.68 149.877C278.621 144.829 282.119 134.322 281.026 122.611Z" fill="white" stroke="#263238" stroke-width="1.04742" stroke-linecap="round" stroke-linejoin="round"/>
<path d="M288.226 121.907C289.705 137.744 282.85 151.313 272.91 152.235C262.969 153.158 253.723 141.062 252.218 125.238C250.714 109.414 257.594 95.7679 267.521 94.9094C277.449 94.051 286.734 106.082 288.226 121.907Z" fill="white" stroke="#263238" stroke-width="1.04742" stroke-linecap="round" stroke-linejoin="round"/>
<path d="M295.941 112.656L268.048 115.218C267.657 115.255 267.262 115.215 266.887 115.1C266.512 114.984 266.163 114.796 265.86 114.546C265.558 114.296 265.308 113.989 265.125 113.643C264.943 113.296 264.83 112.917 264.795 112.528C264.757 112.138 264.798 111.745 264.914 111.371C265.029 110.997 265.218 110.649 265.469 110.348C265.72 110.047 266.028 109.798 266.376 109.616C266.724 109.433 267.104 109.321 267.495 109.286L295.388 106.723C295.779 106.686 296.174 106.727 296.549 106.842C296.925 106.957 297.274 107.145 297.576 107.395C297.878 107.645 298.128 107.952 298.311 108.299C298.494 108.645 298.606 109.024 298.642 109.414C298.679 109.804 298.639 110.197 298.523 110.571C298.407 110.945 298.218 111.293 297.967 111.594C297.716 111.895 297.408 112.144 297.061 112.326C296.713 112.508 296.332 112.62 295.941 112.656Z" fill="#737373" stroke="#263238" stroke-width="1.04742" stroke-linecap="round" stroke-linejoin="round"/>
<path d="M298.012 134.681L270.118 137.244C269.727 137.281 269.333 137.24 268.957 137.125C268.582 137.01 268.233 136.822 267.931 136.572C267.628 136.322 267.379 136.015 267.196 135.668C267.013 135.322 266.9 134.943 266.865 134.553C266.828 134.163 266.868 133.77 266.984 133.396C267.1 133.022 267.288 132.674 267.539 132.373C267.79 132.072 268.098 131.823 268.446 131.641C268.794 131.458 269.174 131.346 269.566 131.311L297.459 128.748C298.247 128.681 299.031 128.925 299.64 129.429C300.249 129.932 300.634 130.655 300.712 131.439C300.749 131.829 300.709 132.222 300.593 132.596C300.477 132.97 300.289 133.318 300.038 133.619C299.787 133.92 299.479 134.169 299.131 134.351C298.783 134.534 298.403 134.646 298.012 134.681Z" fill="#737373" stroke="#263238" stroke-width="1.04742" stroke-linecap="round" stroke-linejoin="round"/>
<path d="M208.584 97.4082C208.584 97.4082 201.871 98.6895 198.695 102.533C195.519 106.377 188.999 136.04 190.503 139.448C192.008 142.856 216.12 147.136 223.566 147.751C229.553 147.987 235.55 147.721 241.493 146.956C241.493 146.956 247.923 146.79 249.684 146.495C251.446 146.201 254.687 144.471 254.738 143.817C254.79 143.164 254.468 141.601 252.063 141.408C249.659 141.216 244.502 139.499 243.846 139.448C245.391 139.043 246.958 138.727 248.54 138.5C248.54 138.5 248.874 137.219 246.225 137.219C243.576 137.219 241.171 137.039 240.168 138.5C239.451 139.638 238.84 140.839 238.342 142.088C238.342 142.088 223.489 143.125 215.426 139.205C207.363 135.284 204.816 133.977 204.816 133.977L210.603 110.913" fill="#366B9F"/>
<path d="M208.584 97.4082C208.584 97.4082 201.871 98.6895 198.695 102.533C195.519 106.377 188.999 136.04 190.503 139.448C192.008 142.856 216.12 147.136 223.566 147.751C229.553 147.987 235.55 147.721 241.493 146.956C241.493 146.956 247.923 146.79 249.684 146.495C251.446 146.201 254.687 144.471 254.738 143.817C254.79 143.164 254.468 141.601 252.063 141.408C249.659 141.216 244.502 139.499 243.846 139.448C245.391 139.043 246.958 138.727 248.54 138.5C248.54 138.5 248.874 137.219 246.225 137.219C243.576 137.219 241.171 137.039 240.168 138.5C239.451 139.638 238.84 140.839 238.342 142.088C238.342 142.088 223.489 143.125 215.426 139.205C207.363 135.284 204.816 133.977 204.816 133.977L210.603 110.913" stroke="#263238" stroke-width="1.04742" stroke-linecap="round" stroke-linejoin="round"/>
<path d="M249.646 146.534C251.433 146.239 254.648 144.51 254.7 143.856C254.751 143.203 254.43 141.64 252.025 141.447C249.62 141.255 244.463 139.538 243.807 139.487C245.352 139.082 246.92 138.765 248.501 138.539C248.501 138.539 248.835 137.257 246.186 137.257C243.537 137.257 241.132 137.078 240.129 138.539C239.412 139.677 238.801 140.878 238.303 142.126C238.303 142.126 223.45 143.164 215.387 139.243C207.324 135.323 204.778 134.016 204.778 134.016L208.301 119.921C203.714 118.041 198.874 116.845 193.937 116.372C191.532 126.033 189.564 137.411 190.465 139.436C191.956 142.844 216.081 147.124 223.527 147.739C229.515 147.975 235.511 147.709 241.454 146.944C241.454 146.944 247.897 146.829 249.646 146.534Z" fill="white" stroke="#263238" stroke-width="1.04742" stroke-linecap="round" stroke-linejoin="round"/>
<path d="M141.032 158.796C141.032 158.796 136.068 162.499 136.827 164.946C137.586 167.393 141.727 162.383 142.755 160.91C143.784 159.436 142.974 157.207 141.032 158.796Z" fill="white" stroke="#263238" stroke-width="1.04742" stroke-linecap="round" stroke-linejoin="round"/>
<path d="M142.008 162.114C142.008 162.114 137.057 165.817 137.803 168.264C138.549 170.711 142.716 165.702 143.731 164.228C144.747 162.755 143.95 160.499 142.008 162.114Z" fill="white" stroke="#263238" stroke-width="1.04742" stroke-linecap="round" stroke-linejoin="round"/>
<path d="M144.361 164.267C144.361 164.267 139.41 167.97 140.169 170.417C140.928 172.865 145.069 167.855 146.097 166.381C147.126 164.908 146.316 162.653 144.361 164.267Z" fill="white" stroke="#263238" stroke-width="1.04742" stroke-linecap="round" stroke-linejoin="round"/>
<path d="M146.304 166.01C146.304 166.01 142.022 168.752 142.742 170.776C143.462 172.801 146.998 168.97 147.886 167.791C148.773 166.612 148.053 164.716 146.304 166.01Z" fill="white" stroke="#263238" stroke-width="1.04742" stroke-linecap="round" stroke-linejoin="round"/>
</svg>
