<svg width="72" height="74" viewBox="0 0 72 74" fill="none" xmlns="http://www.w3.org/2000/svg">
<path id="Vector" d="M9.33317 19.6667H2.6665M9.33317 33H2.6665M15.9998 51.3333V56.3333C15.9998 63.697 21.9693 69.6667 29.3331 69.6667C36.6968 69.6667 42.6665 63.697 42.6665 56.3333V36.3333C42.6665 30.8103 47.1435 26.3333 52.6665 26.3334C58.1895 26.3334 62.6665 30.8107 62.6665 36.3333V38M68.3732 59.8253L62.9592 49.872C62.8332 49.6397 62.4998 49.6397 62.3738 49.872L56.9598 59.8253C56.3505 60.8933 55.9998 62.146 55.9998 63.4853C55.9998 67.3937 58.9845 70.5617 62.6665 70.5617C66.3485 70.5617 69.3332 67.3937 69.3332 63.4853C69.3332 62.146 68.9825 60.8933 68.3732 59.8253ZM22.1653 6.33333H22.6665C26.3484 6.33333 29.3332 9.3181 29.3332 13V39.6667C29.3332 43.3487 26.3484 46.3333 22.6665 46.3333H22.5785C22.1062 48.986 19.7882 51 16.9998 51H14.9998C12.2114 51 9.89344 48.986 9.42114 46.3333H9.33317C5.65127 46.3333 2.6665 43.3487 2.6665 39.6667V13C2.6665 9.3181 5.65127 6.33333 9.33317 6.33333H9.83434C10.7237 4.36763 12.702 3 14.9998 3H16.9998C19.2976 3 21.276 4.36763 22.1653 6.33333Z" stroke="white" stroke-width="5" stroke-linecap="round" stroke-linejoin="round"/>
</svg>
