<svg width="59" height="73" viewBox="0 0 59 73" fill="none" xmlns="http://www.w3.org/2000/svg">
<path id="Vector" d="M6.46173 17.3619C8.13313 16.3729 10.6806 13.0909 12.007 8.32399C12.8467 5.30642 15.5497 3.12402 18.682 3.12402H27.109C30.198 3.12402 32.8757 5.24642 33.75 8.20906C35.1973 13.111 38.125 16.5424 39.6667 17.4342M6.46173 17.3619C6.41833 17.3875 6.37553 17.4117 6.33333 17.4342C4.34067 18.5869 3 20.7414 3 23.209V49.8757C3 52.3434 4.34067 54.4977 6.33333 55.6504M6.46173 17.3619C7.41277 16.8395 8.505 16.5424 9.66667 16.5424H36.3333C37.5477 16.5424 38.686 16.867 39.6667 17.4342M39.6667 17.4342C41.6593 18.5869 43 20.7414 43 23.209V26.5553M6.33333 55.6504C7.87513 56.5424 10.6462 59.7851 12.007 64.6757C12.8467 67.6934 15.5497 69.8757 18.682 69.8757H23M6.33333 55.6504C7.3139 56.2177 8.45237 56.5424 9.66667 56.5424H16.2398M43.057 43.1684C42.6297 43.6211 41.9547 44.6344 41.9547 44.6344C41.9547 44.6344 41.28 43.6211 40.8527 43.1684C37.8093 39.9431 32.8753 39.9431 29.832 43.1684C26.7887 46.3934 26.7987 51.5214 29.749 55.1937C29.749 55.1937 38.2113 66.5424 41.9547 66.5424C45.6983 66.5424 53.902 55.5541 53.902 55.5541C57.1067 51.7784 57.121 46.3934 54.0777 43.1684C51.0343 39.9431 46.1003 39.9431 43.057 43.1684Z" stroke="white" stroke-width="5" stroke-linecap="round" stroke-linejoin="round"/>
</svg>
