<svg width="597" height="197" viewBox="0 0 597 197" fill="none" xmlns="http://www.w3.org/2000/svg">
<path d="M495.27 93.9072C495.27 93.9072 524.745 96.8157 539.675 115.023C539.675 115.023 555.467 93.9328 583.81 94.3684C590.737 86.0427 595.147 75.9278 596.528 65.2014C597.909 54.475 596.203 43.5786 591.609 33.7806C587.016 23.9827 579.723 15.6865 570.581 9.85797C561.439 4.02941 550.823 0.908293 539.969 0.858038C529.115 0.807784 518.471 3.83045 509.275 9.5741C500.078 15.3178 492.709 23.5461 488.024 33.301C483.339 43.056 481.532 53.9362 482.812 64.6749C484.093 75.4136 488.409 85.5689 495.257 93.9584L495.27 93.9072Z" fill="#366B9F"/>
<path opacity="0.5" d="M495.27 93.9072C495.27 93.9072 524.745 96.8157 539.675 115.023C539.675 115.023 555.467 93.9328 583.81 94.3684C590.737 86.0427 595.147 75.9278 596.528 65.2014C597.909 54.475 596.203 43.5786 591.609 33.7806C587.016 23.9827 579.723 15.6865 570.581 9.85797C561.439 4.02941 550.823 0.908293 539.969 0.858038C529.115 0.807784 518.471 3.83045 509.275 9.5741C500.078 15.3178 492.709 23.5461 488.024 33.301C483.339 43.056 481.532 53.9362 482.812 64.6749C484.093 75.4136 488.409 85.5689 495.257 93.9584L495.27 93.9072Z" fill="white"/>
<path d="M538.686 4.88184L537.695 195.208H542.672L538.686 4.88184Z" fill="#B8B8B8"/>
<path d="M540.189 109.476C540.189 109.476 550.13 91.6273 568.044 86.1689C568.044 86.1689 549.14 90.6407 539.752 106.004L540.189 109.476Z" fill="#B8B8B8"/>
<path d="M540.189 58.9144C540.189 58.9144 550.13 41.0658 568.044 35.6074C568.044 35.6074 549.14 40.0664 539.752 55.4421L540.189 58.9144Z" fill="#B8B8B8"/>
<path d="M540.189 84.1693C540.189 84.1693 550.13 66.3207 568.044 60.8623C568.044 60.8623 549.14 65.3341 539.752 80.697L540.189 84.1693Z" fill="#B8B8B8"/>
<path d="M538.71 71.7923C538.71 71.7923 529.104 53.9564 511.82 48.498C511.82 48.498 530.068 52.957 539.186 68.3327L538.71 71.7923Z" fill="#B8B8B8"/>
<path d="M538.71 96.5853C538.71 96.5853 529.104 78.7366 511.82 73.291C511.82 73.291 530.068 77.75 539.186 93.1129L538.71 96.5853Z" fill="#B8B8B8"/>
<path d="M12.8581 93.9072C12.8581 93.9072 42.3329 96.8157 57.2632 115.023C57.2632 115.023 73.0551 93.9328 101.398 94.3684C108.325 86.0427 112.735 75.9278 114.116 65.2014C115.497 54.475 113.791 43.5786 109.197 33.7806C104.604 23.9827 97.311 15.6865 88.1687 9.85797C79.0264 4.02941 68.4105 0.908293 57.5569 0.858038C46.7034 0.807784 36.0588 3.83045 26.8625 9.5741C17.6662 15.3178 10.2966 23.5461 5.61177 33.301C0.926934 43.056 -0.880397 53.9362 0.400208 64.6749C1.68081 75.4136 5.99666 85.5689 12.8453 93.9584L12.8581 93.9072Z" fill="#366B9F"/>
<path opacity="0.5" d="M12.8581 93.9072C12.8581 93.9072 42.3329 96.8157 57.2632 115.023C57.2632 115.023 73.0551 93.9328 101.398 94.3684C108.325 86.0427 112.735 75.9278 114.116 65.2014C115.497 54.475 113.791 43.5786 109.197 33.7806C104.604 23.9827 97.311 15.6865 88.1687 9.85797C79.0264 4.02941 68.4105 0.908293 57.5569 0.858038C46.7034 0.807784 36.0588 3.83045 26.8625 9.5741C17.6662 15.3178 10.2966 23.5461 5.61177 33.301C0.926934 43.056 -0.880397 53.9362 0.400208 64.6749C1.68081 75.4136 5.99666 85.5689 12.8453 93.9584L12.8581 93.9072Z" fill="white"/>
<path d="M56.2999 4.88184L55.2969 195.208H60.2736L56.2999 4.88184Z" fill="#B8B8B8"/>
<path d="M57.7908 109.476C57.7908 109.476 67.7314 91.6273 85.6452 86.1689C85.6452 86.1689 66.7412 90.6407 57.3535 106.004L57.7908 109.476Z" fill="#B8B8B8"/>
<path d="M57.7908 58.9144C57.7908 58.9144 67.7314 41.0658 85.6452 35.6074C85.6452 35.6074 66.7412 40.0664 57.3535 55.4421L57.7908 58.9144Z" fill="#B8B8B8"/>
<path d="M57.7908 84.1693C57.7908 84.1693 67.7314 66.3207 85.6452 60.8623C85.6452 60.8623 66.7412 65.3341 57.3535 80.697L57.7908 84.1693Z" fill="#B8B8B8"/>
<path d="M56.3118 71.7923C56.3118 71.7923 46.7055 53.9564 29.4219 48.498C29.4219 48.498 47.67 52.957 56.7876 68.3327L56.3118 71.7923Z" fill="#B8B8B8"/>
<path d="M56.3118 96.5853C56.3118 96.5853 46.7055 78.7366 29.4219 73.291C29.4219 73.291 47.67 77.75 56.7876 93.1129L56.3118 96.5853Z" fill="#B8B8B8"/>
<path d="M375.505 112.357C375.505 112.357 399.631 114.728 411.847 129.629C411.847 129.629 424.772 112.37 447.971 112.716C453.637 105.901 457.244 97.6221 458.371 88.8436C459.499 80.0651 458.1 71.1482 454.339 63.1308C450.578 55.1135 444.608 48.3256 437.125 43.5574C429.642 38.7893 420.954 36.237 412.072 36.1977C403.189 36.1585 394.479 38.6339 386.954 43.3357C379.428 48.0375 373.399 54.7724 369.566 62.7562C365.733 70.74 364.256 79.6442 365.305 88.4323C366.354 97.2204 369.887 105.531 375.493 112.396L375.505 112.357Z" fill="#366B9F"/>
<path opacity="0.5" d="M375.505 112.357C375.505 112.357 399.631 114.728 411.847 129.629C411.847 129.629 424.772 112.37 447.971 112.716C453.637 105.901 457.244 97.6221 458.371 88.8436C459.499 80.0651 458.1 71.1482 454.339 63.1308C450.578 55.1135 444.608 48.3256 437.125 43.5574C429.642 38.7893 420.954 36.237 412.072 36.1977C403.189 36.1585 394.479 38.6339 386.954 43.3357C379.428 48.0375 373.399 54.7724 369.566 62.7562C365.733 70.74 364.256 79.6442 365.305 88.4323C366.354 97.2204 369.887 105.531 375.493 112.396L375.505 112.357Z" fill="white"/>
<path d="M411.05 39.4248L410.24 195.207H414.317L411.05 39.4248Z" fill="#B8B8B8"/>
<path d="M412.273 125.043C412.273 125.043 420.426 110.436 435.074 105.964C435.074 105.964 419.642 109.616 411.926 122.198L412.273 125.043Z" fill="#B8B8B8"/>
<path d="M412.273 83.6567C412.273 83.6567 420.426 69.0498 435.074 64.5908C435.074 64.5908 419.642 68.2426 411.926 80.8122L412.273 83.6567Z" fill="#B8B8B8"/>
<path d="M412.273 104.35C412.273 104.35 420.426 89.7433 435.074 85.2715C435.074 85.2715 419.642 88.9232 411.926 101.506L412.273 104.35Z" fill="#B8B8B8"/>
<path d="M411.064 94.2017C411.064 94.2017 403.206 79.5947 389.061 75.1357C389.061 75.1357 403.991 78.7875 411.462 91.3571L411.064 94.2017Z" fill="#B8B8B8"/>
<path d="M411.064 114.485C411.064 114.485 403.206 99.8779 389.061 95.4189C389.061 95.4189 403.991 99.0707 411.462 111.653L411.064 114.485Z" fill="#B8B8B8"/>
<path d="M142.087 112.357C142.087 112.357 166.213 114.728 178.429 129.629C178.429 129.629 191.289 112.37 214.553 112.716C220.219 105.901 223.826 97.6221 224.953 88.8436C226.081 80.0651 224.682 71.1482 220.921 63.1308C217.16 55.1135 211.19 48.3256 203.707 43.5574C196.224 38.7893 187.536 36.237 178.654 36.1977C169.771 36.1585 161.061 38.6339 153.536 43.3357C146.01 48.0375 139.981 54.7724 136.148 62.7562C132.315 70.74 130.838 79.6442 131.887 88.4323C132.936 97.2204 136.469 105.531 142.075 112.396L142.087 112.357Z" fill="#366B9F"/>
<path opacity="0.5" d="M142.087 112.357C142.087 112.357 166.213 114.728 178.429 129.629C178.429 129.629 191.289 112.37 214.553 112.716C220.219 105.901 223.826 97.6221 224.953 88.8436C226.081 80.0651 224.682 71.1482 220.921 63.1308C217.16 55.1135 211.19 48.3256 203.707 43.5574C196.224 38.7893 187.536 36.237 178.654 36.1977C169.771 36.1585 161.061 38.6339 153.536 43.3357C146.01 48.0375 139.981 54.7724 136.148 62.7562C132.315 70.74 130.838 79.6442 131.887 88.4323C132.936 97.2204 136.469 105.531 142.075 112.396L142.087 112.357Z" fill="white"/>
<path d="M177.63 39.4248L176.82 195.207H180.897L177.63 39.4248Z" fill="#B8B8B8"/>
<path d="M178.918 125.043C178.918 125.043 187.071 110.436 201.718 105.964C201.718 105.964 186.286 109.616 178.57 122.198L178.918 125.043Z" fill="#B8B8B8"/>
<path d="M178.918 83.6567C178.918 83.6567 187.071 69.0498 201.718 64.5908C201.718 64.5908 186.286 68.2426 178.57 80.8122L178.918 83.6567Z" fill="#B8B8B8"/>
<path d="M178.918 104.35C178.918 104.35 187.071 89.7433 201.718 85.2715C201.718 85.2715 186.286 88.9232 178.57 101.506L178.918 104.35Z" fill="#B8B8B8"/>
<path d="M177.631 94.203C177.631 94.203 169.786 79.5961 155.641 75.2012C155.641 75.2012 170.571 78.8529 178.043 91.4226L177.631 94.203Z" fill="#B8B8B8"/>
<path d="M177.632 114.485C177.632 114.485 169.775 99.8779 155.629 95.4189C155.629 95.4189 170.559 99.0707 178.031 111.653L177.632 114.485Z" fill="#B8B8B8"/>
<path d="M21.7305 195.888H576.685" stroke="#263238" stroke-width="1.04742" stroke-miterlimit="10"/>
</svg>
