<svg width="801" height="648" viewBox="0 0 801 648" fill="none" xmlns="http://www.w3.org/2000/svg">
<path d="M-239.718 275.599L-195.093 195.861C-176.378 162.421 -132.311 153.028 -101.218 175.426V175.426C-68.5668 198.946 -22.1115 186.752 -5.85594 149.942V149.942C9.57922 114.99 52.2222 101.568 84.8936 121.38L90.5211 124.793C127.544 147.243 175.856 130.502 191.051 89.959L212.262 33.3643" stroke="#0B19AA" stroke-width="2"/>
<path d="M-225.224 329.693L-180.505 249.923C-161.746 216.461 -117.642 207.061 -86.499 229.46V229.46C-53.7955 252.982 -7.29921 240.778 9.00038 203.939V203.939C24.4768 168.96 67.1552 155.527 99.8757 175.336L105.517 178.752C142.601 201.202 190.96 184.445 206.202 143.862L227.456 87.2705" stroke="#0B19AA" stroke-width="2"/>
<path d="M-210.73 383.779L-166.011 304.009C-147.252 270.547 -103.148 261.147 -72.0049 283.546V283.546C-39.3013 307.068 7.19493 294.864 23.4945 258.025V258.025C38.9709 223.046 81.6493 209.613 114.37 229.422L120.011 232.838C157.095 255.288 205.454 238.53 220.696 197.948L241.95 141.356" stroke="#0B19AA" stroke-width="2"/>
<path d="M-196.236 437.873L-151.611 358.134C-132.896 324.694 -88.8289 315.302 -57.7351 337.7V337.7C-25.0844 361.219 21.371 349.026 37.6265 312.216V312.216C53.0616 277.263 95.7046 263.842 128.376 283.653L134.004 287.066C171.026 309.516 219.338 292.776 234.533 252.232L255.744 195.638" stroke="#0B19AA" stroke-width="2"/>
<path d="M274.282 243.42L318.907 163.681C337.622 130.241 381.689 120.849 412.782 143.247V143.247C445.433 166.766 491.889 154.573 508.144 117.762V117.762C523.579 82.8099 566.222 69.3887 598.894 89.2003L604.521 92.6128C641.544 115.063 689.856 98.3227 705.051 57.7793L726.262 1.18457" stroke="#0B19AA" stroke-width="2"/>
<path d="M288.776 297.513L333.495 217.743C352.254 184.281 396.358 174.881 427.501 197.281V197.281C460.205 220.803 506.701 208.599 523 171.759V171.759C538.477 136.781 581.155 123.348 613.876 143.157L619.517 146.572C656.601 169.022 704.96 152.265 720.202 111.682L741.456 55.0908" stroke="#0B19AA" stroke-width="2"/>
<path d="M303.27 351.599L347.989 271.829C366.748 238.367 410.852 228.967 441.995 251.367V251.367C474.699 274.889 521.195 262.685 537.495 225.845V225.845C552.971 190.866 595.649 177.434 628.37 197.243L634.011 200.658C671.095 223.108 719.454 206.351 734.696 165.768L755.95 109.177" stroke="#0B19AA" stroke-width="2"/>
<path d="M317.764 405.693L362.389 325.955C381.104 292.514 425.171 283.122 456.265 305.52V305.52C488.916 329.039 535.371 316.846 551.626 280.036V280.036C567.062 245.083 609.705 231.662 642.376 251.474L648.004 254.886C685.026 277.336 733.338 260.596 748.533 220.053L769.744 163.458" stroke="#0B19AA" stroke-width="2"/>
<path d="M-177.718 484.599L-133.093 404.861C-114.378 371.421 -70.3114 362.028 -39.2175 384.426V384.426C-6.56679 407.946 39.8885 395.752 56.1441 358.942V358.942C71.5792 323.99 114.222 310.568 146.894 330.38L152.521 333.793C189.544 356.243 237.856 339.502 253.051 298.959L274.262 242.364" stroke="#0B19AA" stroke-width="2"/>
<path d="M-163.224 538.693L-118.505 458.923C-99.7464 425.461 -55.6419 416.061 -24.499 438.46V438.46C8.20454 461.982 54.7008 449.778 71.0004 412.939V412.939C86.4768 377.96 129.155 364.527 161.876 384.336L167.517 387.752C204.601 410.202 252.96 393.445 268.202 352.862L289.456 296.27" stroke="#0B19AA" stroke-width="2"/>
<path d="M-148.73 592.779L-104.011 513.009C-85.2523 479.547 -41.1478 470.147 -10.0049 492.546V492.546C22.6987 516.068 69.1949 503.864 85.4945 467.025V467.025C100.971 432.046 143.649 418.613 176.37 438.422L182.011 441.838C219.095 464.288 267.454 447.53 282.696 406.948L303.95 350.356" stroke="#0B19AA" stroke-width="2"/>
<path d="M-134.236 646.873L-89.6107 567.134C-70.8961 533.694 -26.8289 524.302 4.26488 546.7V546.7C36.9156 570.219 83.371 558.026 99.6265 521.216V521.216C115.062 486.263 157.705 472.842 190.376 492.653L196.004 496.066C233.026 518.516 281.338 501.776 296.533 461.232L317.744 404.638" stroke="#0B19AA" stroke-width="2"/>
</svg>
