<?xml version="1.0" encoding="UTF-8"?>
<svg width="800px" height="600px" viewBox="0 0 800 600" version="1.1" xmlns="http://www.w3.org/2000/svg">
    <g stroke="none" stroke-width="1" fill="none" fill-rule="evenodd">
        <path d="M0,100 C50,80 100,120 150,100 C200,80 250,120 300,100 C350,80 400,120 450,100 C500,80 550,120 600,100 C650,80 700,120 750,100 C800,80 850,120 900,100" stroke="#3b82f6" stroke-width="2"></path>
        <path d="M0,150 C50,130 100,170 150,150 C200,130 250,170 300,150 C350,130 400,170 450,150 C500,130 550,170 600,150 C650,130 700,170 750,150 C800,130 850,170 900,150" stroke="#3b82f6" stroke-width="2"></path>
        <path d="M0,200 C50,180 100,220 150,200 C200,180 250,220 300,200 C350,180 400,220 450,200 C500,180 550,220 600,200 C650,180 700,220 750,200 C800,180 850,220 900,200" stroke="#3b82f6" stroke-width="2"></path>
        <path d="M0,250 C50,230 100,270 150,250 C200,230 250,270 300,250 C350,230 400,270 450,250 C500,230 550,270 600,250 C650,230 700,270 750,250 C800,230 850,270 900,250" stroke="#3b82f6" stroke-width="2"></path>
        <path d="M0,300 C50,280 100,320 150,300 C200,280 250,320 300,300 C350,280 400,320 450,300 C500,280 550,320 600,300 C650,280 700,320 750,300 C800,280 850,320 900,300" stroke="#3b82f6" stroke-width="2"></path>
        <path d="M0,350 C50,330 100,370 150,350 C200,330 250,370 300,350 C350,330 400,370 450,350 C500,330 550,370 600,350 C650,330 700,370 750,350 C800,330 850,370 900,350" stroke="#3b82f6" stroke-width="2"></path>
        <path d="M0,400 C50,380 100,420 150,400 C200,380 250,420 300,400 C350,380 400,420 450,400 C500,380 550,420 600,400 C650,380 700,420 750,400 C800,380 850,420 900,400" stroke="#3b82f6" stroke-width="2"></path>
    </g>
</svg>