<svg width="1012" height="853" viewBox="0 0 1012 853" fill="none" xmlns="http://www.w3.org/2000/svg">
<path d="M1.28198 480.63L45.907 400.892C64.6217 367.452 108.689 358.059 139.783 380.457C172.433 403.977 218.889 391.783 235.144 354.973C250.579 320.021 293.222 306.599 325.894 326.411L331.521 329.824C368.544 352.274 416.856 335.534 432.051 294.99L453.262 238.395M15.7763 534.724L60.495 454.954C79.2539 421.492 123.358 412.092 154.501 434.491C187.205 458.013 233.701 445.809 250.001 408.97C265.477 373.991 308.156 360.558 340.876 380.367L346.517 383.783C383.601 406.233 431.961 389.475 447.202 348.893L468.456 292.301M30.2701 588.81L74.9888 509.04C93.7476 475.577 137.852 466.177 168.995 488.577C201.699 512.099 248.195 499.895 264.494 463.056C279.971 428.077 322.649 414.644 355.37 434.453L361.011 437.868C398.095 460.319 446.454 443.561 461.696 402.979L482.95 346.387M44.7645 642.903L89.3896 563.165C108.104 529.725 152.171 520.332 183.265 542.73C215.916 566.25 262.371 554.056 278.627 517.246C294.062 482.294 336.705 468.872 369.376 488.684L375.004 492.097C412.026 514.547 460.338 497.806 475.534 457.263L496.745 400.668M515.282 448.45L559.907 368.712C578.622 335.272 622.689 325.88 653.783 348.277C686.433 371.797 732.889 359.603 749.144 322.793C764.579 287.841 807.222 274.42 839.894 294.231L845.521 297.644C882.544 320.094 930.856 303.354 946.051 262.81L967.262 206.215M529.776 502.544L574.495 422.774C593.254 389.312 637.358 379.912 668.501 402.311C701.205 425.834 747.701 413.629 764.001 376.79C779.477 341.811 822.156 328.379 854.876 348.188L860.517 351.603C897.601 374.053 945.961 357.296 961.202 316.713L982.456 260.122M544.27 556.63L588.989 476.86C607.748 443.397 651.852 433.997 682.995 456.397C715.699 479.919 762.195 467.715 778.495 430.876C793.971 395.897 836.649 382.464 869.37 402.273L875.011 405.688C912.095 428.139 960.454 411.381 975.696 370.799L996.95 314.207M558.765 610.723L603.39 530.985C622.104 497.545 666.171 488.153 697.265 510.55C729.916 534.07 776.371 521.876 792.627 485.066C808.062 450.114 850.705 436.693 883.376 456.504L889.004 459.917C926.026 482.367 974.338 465.627 989.534 425.083L1010.74 368.488M451.282 243.424L495.907 163.686C514.622 130.246 558.689 120.854 589.783 143.251C622.433 166.771 668.889 154.577 685.144 117.767C700.579 82.8148 743.222 69.3936 775.894 89.2052L781.521 92.6177C818.544 115.068 866.856 98.3276 882.051 57.7842L903.262 1.18945M465.776 297.518L510.495 217.748C529.254 184.286 573.358 174.886 604.501 197.285C637.205 220.808 683.701 208.603 700.001 171.764C715.477 136.785 758.156 123.353 790.876 143.162L796.517 146.577C833.601 169.027 881.961 152.27 897.202 111.687L918.456 55.0955M480.27 351.604L524.989 271.834C543.748 238.371 587.852 228.971 618.995 251.371C651.699 274.893 698.195 262.689 714.495 225.85C729.971 190.871 772.649 177.438 805.37 197.247L811.011 200.662C848.095 223.113 896.454 206.355 911.696 165.773L932.95 109.181M494.765 405.697L539.39 325.959C558.104 292.519 602.171 283.127 633.265 305.524C665.916 329.044 712.371 316.85 728.627 280.04C744.062 245.088 786.705 231.667 819.376 251.478L825.004 254.891C862.026 277.341 910.338 260.601 925.534 220.057L946.745 163.462M63.282 689.63L107.907 609.892C126.622 576.452 170.689 567.059 201.783 589.457C234.433 612.977 280.889 600.783 297.144 563.973C312.579 529.021 355.222 515.599 387.894 535.411L393.521 538.824C430.544 561.274 478.856 544.534 494.051 503.99L515.262 447.395M77.7763 743.724L122.495 663.954C141.254 630.492 185.358 621.092 216.501 643.491C249.205 667.013 295.701 654.809 312.001 617.97C327.477 582.991 370.156 569.558 402.876 589.367L408.517 592.783C445.601 615.233 493.961 598.475 509.202 557.893L530.456 501.301M92.2701 797.81L136.989 718.04C155.748 684.577 199.852 675.177 230.995 697.577C263.699 721.099 310.195 708.895 326.494 672.056C341.971 637.077 384.649 623.644 417.37 643.453L423.011 646.868C460.095 669.319 508.454 652.561 523.696 611.979L544.95 555.387M106.765 851.903L151.39 772.165C170.104 738.725 214.171 729.332 245.265 751.73C277.916 775.25 324.371 763.056 340.627 726.246C356.062 691.294 398.705 677.872 431.376 697.684L437.004 701.097C474.026 723.547 522.338 706.806 537.534 666.263L558.745 609.668" stroke="#0B19AA" stroke-width="3"/>
</svg>
