<svg width="349" height="406" viewBox="0 0 349 406" fill="none" xmlns="http://www.w3.org/2000/svg">
<path d="M-177.718 242.599L-133.093 162.861C-114.378 129.421 -70.3114 120.028 -39.2175 142.426V142.426C-6.56679 165.946 39.8885 153.752 56.1441 116.942V116.942C71.5792 81.9896 114.222 68.5684 146.894 88.38L152.521 91.7925C189.544 114.243 237.856 97.5024 253.051 56.959L274.262 0.364256" stroke="#0B19AA" stroke-width="2"/>
<path d="M-163.224 296.693L-118.505 216.923C-99.7464 183.461 -55.6419 174.061 -24.499 196.46V196.46C8.20454 219.982 54.7008 207.778 71.0004 170.939V170.939C86.4768 135.96 129.155 122.527 161.876 142.336L167.517 145.752C204.601 168.202 252.96 151.445 268.202 110.862L289.456 54.2705" stroke="#0B19AA" stroke-width="2"/>
<path d="M-148.73 350.779L-104.011 271.009C-85.2523 237.547 -41.1478 228.147 -10.0049 250.546V250.546C22.6987 274.068 69.1949 261.864 85.4945 225.025V225.025C100.971 190.046 143.649 176.613 176.37 196.422L182.011 199.838C219.095 222.288 267.454 205.53 282.696 164.948L303.95 108.356" stroke="#0B19AA" stroke-width="2"/>
<path d="M-134.236 404.873L-89.6107 325.134C-70.8961 291.694 -26.8289 282.302 4.26488 304.7V304.7C36.9156 328.219 83.371 316.026 99.6265 279.216V279.216C115.062 244.263 157.705 230.842 190.376 250.653L196.004 254.066C233.026 276.516 281.338 259.776 296.533 219.232L317.744 162.638" stroke="#0B19AA" stroke-width="2"/>
</svg>
